<mxfile host="app.diagrams.net" agent="Mozilla/5.0 (Macintosh; Intel Mac OS X 10_15_7) AppleWebKit/537.36 (KHTML, like Gecko) Chrome/138.0.0.0 Safari/537.36" version="27.0.3">
  <diagram name="Page-1" id="IowLkyHsUFm7hj_iNHQr">
    <mxGraphModel dx="1584" dy="878" grid="1" gridSize="10" guides="1" tooltips="1" connect="1" arrows="1" fold="1" page="1" pageScale="1" pageWidth="850" pageHeight="1100" math="0" shadow="0">
      <root>
        <mxCell id="0" />
        <mxCell id="1" parent="0" />
        <mxCell id="rroA4w5QciKg8AlWYJ8E-7" style="edgeStyle=orthogonalEdgeStyle;rounded=0;orthogonalLoop=1;jettySize=auto;html=1;exitX=0.5;exitY=1;exitDx=0;exitDy=0;entryX=0.5;entryY=0;entryDx=0;entryDy=0;fontSize=16;" parent="1" source="tHObwuz-neF_lD4l34wk-1" target="hvczIfgNtDT0wLWKjFQM-12" edge="1">
          <mxGeometry relative="1" as="geometry" />
        </mxCell>
        <mxCell id="tHObwuz-neF_lD4l34wk-1" value="" style="rounded=1;whiteSpace=wrap;html=1;fillColor=#FFCCCC;strokeColor=#E6FFCC;fontSize=16;" parent="1" vertex="1">
          <mxGeometry x="68.5" y="20" width="460" height="210" as="geometry" />
        </mxCell>
        <mxCell id="tHObwuz-neF_lD4l34wk-16" value="" style="edgeStyle=orthogonalEdgeStyle;rounded=0;orthogonalLoop=1;jettySize=auto;html=1;fontSize=16;" parent="1" source="tHObwuz-neF_lD4l34wk-2" edge="1">
          <mxGeometry relative="1" as="geometry">
            <mxPoint x="295" y="1320" as="targetPoint" />
          </mxGeometry>
        </mxCell>
        <mxCell id="tHObwuz-neF_lD4l34wk-2" value="" style="rounded=1;whiteSpace=wrap;html=1;fillColor=light-dark(#B3FF66,#FFCCFF);fontSize=16;" parent="1" vertex="1">
          <mxGeometry x="65" y="1090" width="460" height="200" as="geometry" />
        </mxCell>
        <mxCell id="tHObwuz-neF_lD4l34wk-4" value="&lt;font&gt;&lt;b&gt;Hybrid Model Data Preprocessing&lt;/b&gt;&lt;/font&gt;" style="text;html=1;align=center;verticalAlign=middle;whiteSpace=wrap;rounded=0;fontSize=16;" parent="1" vertex="1">
          <mxGeometry y="20" width="590" height="40" as="geometry" />
        </mxCell>
        <mxCell id="tHObwuz-neF_lD4l34wk-10" value="" style="edgeStyle=orthogonalEdgeStyle;rounded=0;orthogonalLoop=1;jettySize=auto;html=1;fontSize=16;" parent="1" source="tHObwuz-neF_lD4l34wk-5" target="tHObwuz-neF_lD4l34wk-7" edge="1">
          <mxGeometry relative="1" as="geometry" />
        </mxCell>
        <mxCell id="tHObwuz-neF_lD4l34wk-5" value="&lt;font&gt;&lt;b&gt;Data Loading&lt;/b&gt;&lt;/font&gt;&lt;div&gt;&lt;span&gt;&lt;b&gt;&lt;br&gt;&lt;/b&gt;&lt;/span&gt;&lt;div&gt;Load the network traffic CSV&lt;/div&gt;&lt;/div&gt;" style="rounded=1;whiteSpace=wrap;html=1;fontSize=16;" parent="1" vertex="1">
          <mxGeometry x="78.5" y="90" width="130" height="120" as="geometry" />
        </mxCell>
        <mxCell id="tHObwuz-neF_lD4l34wk-11" value="" style="edgeStyle=orthogonalEdgeStyle;rounded=0;orthogonalLoop=1;jettySize=auto;html=1;fontSize=16;" parent="1" source="tHObwuz-neF_lD4l34wk-7" target="tHObwuz-neF_lD4l34wk-8" edge="1">
          <mxGeometry relative="1" as="geometry" />
        </mxCell>
        <mxCell id="tHObwuz-neF_lD4l34wk-7" value="&lt;font&gt;&lt;b&gt;Handle the data&lt;/b&gt;&lt;/font&gt;&lt;div&gt;&lt;br&gt;&lt;/div&gt;&lt;div&gt;Remove missing values and inf values&lt;/div&gt;" style="rounded=1;whiteSpace=wrap;html=1;fontSize=16;" parent="1" vertex="1">
          <mxGeometry x="228.5" y="90" width="130" height="120" as="geometry" />
        </mxCell>
        <mxCell id="tHObwuz-neF_lD4l34wk-8" value="&lt;font&gt;&lt;b&gt;Data Balancing&lt;/b&gt;&lt;/font&gt;&lt;div&gt;&lt;br&gt;&lt;/div&gt;&lt;div&gt;Undersampling dataset&lt;/div&gt;" style="rounded=1;whiteSpace=wrap;html=1;fontSize=16;" parent="1" vertex="1">
          <mxGeometry x="378.5" y="90" width="140" height="120" as="geometry" />
        </mxCell>
        <mxCell id="5IH84X5XSTADNQ1NUQGd-1" value="&lt;b&gt;Train Classifiers using Quantum Encoded Data&lt;/b&gt;" style="text;html=1;align=center;verticalAlign=middle;whiteSpace=wrap;rounded=0;fontSize=16;" parent="1" vertex="1">
          <mxGeometry x="4.1299999999999955" y="1100" width="590" height="40" as="geometry" />
        </mxCell>
        <mxCell id="5IH84X5XSTADNQ1NUQGd-4" style="edgeStyle=orthogonalEdgeStyle;rounded=0;orthogonalLoop=1;jettySize=auto;html=1;exitX=1;exitY=0.5;exitDx=0;exitDy=0;fontSize=16;" parent="1" source="5IH84X5XSTADNQ1NUQGd-2" target="5IH84X5XSTADNQ1NUQGd-3" edge="1">
          <mxGeometry relative="1" as="geometry" />
        </mxCell>
        <mxCell id="5IH84X5XSTADNQ1NUQGd-2" value="&lt;div&gt;&lt;b&gt;Train the Model&lt;/b&gt;&lt;/div&gt;&lt;br&gt;&lt;div&gt;First train the model using the quantum encoded data&lt;/div&gt;" style="rounded=1;whiteSpace=wrap;html=1;fontSize=16;" parent="1" vertex="1">
          <mxGeometry x="100" y="1170" width="160" height="110" as="geometry" />
        </mxCell>
        <mxCell id="5IH84X5XSTADNQ1NUQGd-3" value="&lt;div&gt;&lt;b&gt;Test the model&lt;/b&gt;&lt;/div&gt;&lt;div&gt;&lt;b&gt;&lt;br&gt;&lt;/b&gt;&lt;/div&gt;&lt;div&gt;Test the model using the quantum encoded data&lt;/div&gt;" style="rounded=1;whiteSpace=wrap;html=1;fontSize=16;" parent="1" vertex="1">
          <mxGeometry x="315" y="1170" width="170" height="110" as="geometry" />
        </mxCell>
        <mxCell id="hvczIfgNtDT0wLWKjFQM-11" value="" style="rounded=1;whiteSpace=wrap;html=1;fillColor=light-dark(#FFCCE6,#99FFFF);fontSize=16;" parent="1" vertex="1">
          <mxGeometry x="68.5" y="260" width="460" height="190" as="geometry" />
        </mxCell>
        <mxCell id="hvczIfgNtDT0wLWKjFQM-12" value="&lt;font&gt;&lt;b&gt;Feature Processing&lt;/b&gt;&lt;/font&gt;" style="text;html=1;align=center;verticalAlign=middle;whiteSpace=wrap;rounded=0;fontSize=16;" parent="1" vertex="1">
          <mxGeometry y="260" width="590" height="40" as="geometry" />
        </mxCell>
        <mxCell id="hvczIfgNtDT0wLWKjFQM-14" value="&lt;div&gt;&lt;b&gt;&lt;span&gt;Feature Scaling&lt;/span&gt;&lt;br&gt;&lt;/b&gt;&lt;div&gt;&lt;br&gt;&lt;/div&gt;&lt;div&gt;Apply feature scaling to the data&lt;/div&gt;&lt;/div&gt;" style="rounded=1;whiteSpace=wrap;html=1;fontSize=16;" parent="1" vertex="1">
          <mxGeometry x="378.5" y="300" width="140" height="140" as="geometry" />
        </mxCell>
        <mxCell id="fqz2EAUhRij4Ml8frbec-1" value="" style="edgeStyle=orthogonalEdgeStyle;rounded=0;orthogonalLoop=1;jettySize=auto;html=1;fontSize=16;" parent="1" source="hvczIfgNtDT0wLWKjFQM-16" target="hvczIfgNtDT0wLWKjFQM-14" edge="1">
          <mxGeometry relative="1" as="geometry" />
        </mxCell>
        <mxCell id="hvczIfgNtDT0wLWKjFQM-16" value="&lt;div&gt;&lt;span&gt;&lt;b&gt;Train-Test Split&lt;/b&gt;&lt;/span&gt;&lt;/div&gt;&lt;div&gt;&lt;br&gt;&lt;/div&gt;&lt;div&gt;70% Training Data&lt;/div&gt;&lt;div&gt;30% Testing Data&lt;/div&gt;" style="rounded=1;whiteSpace=wrap;html=1;fontSize=16;" parent="1" vertex="1">
          <mxGeometry x="228.5" y="300" width="130" height="140" as="geometry" />
        </mxCell>
        <mxCell id="fqz2EAUhRij4Ml8frbec-5" value="" style="edgeStyle=orthogonalEdgeStyle;rounded=0;orthogonalLoop=1;jettySize=auto;html=1;fontSize=16;" parent="1" source="fqz2EAUhRij4Ml8frbec-3" target="hvczIfgNtDT0wLWKjFQM-16" edge="1">
          <mxGeometry relative="1" as="geometry" />
        </mxCell>
        <mxCell id="fqz2EAUhRij4Ml8frbec-3" value="&lt;div&gt;&lt;span&gt;&lt;b&gt;Label Encoding&lt;/b&gt;&lt;/span&gt;&lt;/div&gt;&lt;div&gt;&lt;span&gt;&lt;b&gt;&lt;br&gt;&lt;/b&gt;&lt;/span&gt;&lt;/div&gt;&lt;div&gt;Apply Label Encoding for the categorical features&lt;/div&gt;" style="rounded=1;whiteSpace=wrap;html=1;fontSize=16;" parent="1" vertex="1">
          <mxGeometry x="78.5" y="300" width="130" height="140" as="geometry" />
        </mxCell>
        <mxCell id="fqz2EAUhRij4Ml8frbec-19" value="" style="rounded=1;whiteSpace=wrap;html=1;fontSize=16;" parent="1" vertex="1">
          <mxGeometry x="268.5" y="250" width="20" as="geometry" />
        </mxCell>
        <mxCell id="9GCqckJGlXRP2MBFCVZy-4" value="&lt;div&gt;&lt;br&gt;&lt;/div&gt;&lt;div&gt;&lt;br&gt;&lt;/div&gt;&lt;div&gt;&lt;br&gt;&lt;/div&gt;&lt;div&gt;&lt;b&gt;&lt;br&gt;&lt;/b&gt;&lt;/div&gt;&lt;div&gt;&lt;b&gt;Performance Evaluation&lt;/b&gt;&lt;/div&gt;&lt;div&gt;&lt;div&gt;&lt;font&gt;&lt;b&gt;&lt;br&gt;&lt;/b&gt;&lt;/font&gt;&lt;/div&gt;&lt;div&gt;&lt;font&gt;&lt;b&gt;&lt;br&gt;&lt;/b&gt;&lt;/font&gt;&lt;/div&gt;&lt;div&gt;&lt;font&gt;&lt;b&gt;&lt;br&gt;&lt;/b&gt;&lt;/font&gt;&lt;/div&gt;&lt;div&gt;&lt;font&gt;&lt;b&gt;&lt;br&gt;&lt;/b&gt;&lt;/font&gt;&lt;/div&gt;&lt;div&gt;&lt;font&gt;&lt;b&gt;&lt;br&gt;&lt;/b&gt;&lt;/font&gt;&lt;/div&gt;&lt;div&gt;&lt;font&gt;&lt;b&gt;&lt;br&gt;&lt;/b&gt;&lt;/font&gt;&lt;/div&gt;&lt;div&gt;&lt;font&gt;&lt;b&gt;&lt;br&gt;&lt;/b&gt;&lt;/font&gt;&lt;/div&gt;&lt;div&gt;&lt;font&gt;&lt;b&gt;&lt;br&gt;&lt;/b&gt;&lt;/font&gt;&lt;/div&gt;&lt;div&gt;&lt;font&gt;&lt;b&gt;&lt;br&gt;&lt;/b&gt;&lt;/font&gt;&lt;/div&gt;&lt;div&gt;&lt;br&gt;&lt;/div&gt;&lt;/div&gt;" style="rounded=1;whiteSpace=wrap;html=1;fillColor=light-dark(#00CCCC,#CCFFCC);fontSize=16;" parent="1" vertex="1">
          <mxGeometry x="65" y="1320" width="460" height="170" as="geometry" />
        </mxCell>
        <mxCell id="9GCqckJGlXRP2MBFCVZy-5" value="&lt;div&gt;&lt;br&gt;&lt;/div&gt;Evaluate the accuracy, precision,recall and f1-score" style="rounded=1;whiteSpace=wrap;html=1;fontSize=16;" parent="1" vertex="1">
          <mxGeometry x="115" y="1370" width="360" height="100" as="geometry" />
        </mxCell>
        <mxCell id="9GCqckJGlXRP2MBFCVZy-6" value="Evaluate the performance of the model" style="text;html=1;align=center;verticalAlign=middle;whiteSpace=wrap;rounded=0;fontSize=16;fontStyle=1" parent="1" vertex="1">
          <mxGeometry x="150" y="1370" width="298.25" height="30" as="geometry" />
        </mxCell>
        <mxCell id="KbNyF-SwpN6REmsCcp1_-1" value="" style="rounded=1;whiteSpace=wrap;html=1;fillColor=#fff2cc;fontSize=16;strokeColor=#d6b656;" vertex="1" parent="1">
          <mxGeometry x="68.5" y="580" width="220" height="390" as="geometry" />
        </mxCell>
        <mxCell id="KbNyF-SwpN6REmsCcp1_-2" value="" style="rounded=1;whiteSpace=wrap;html=1;fillColor=#fff2cc;fontSize=16;strokeColor=#d6b656;" vertex="1" parent="1">
          <mxGeometry x="308.5" y="580" width="220" height="390" as="geometry" />
        </mxCell>
        <mxCell id="KbNyF-SwpN6REmsCcp1_-4" value="&lt;b&gt;Amplitude Embedding using PennyLane&lt;/b&gt;" style="text;html=1;align=center;verticalAlign=middle;whiteSpace=wrap;rounded=0;fontSize=16;" vertex="1" parent="1">
          <mxGeometry x="88.5" y="580" width="180" height="50" as="geometry" />
        </mxCell>
        <mxCell id="KbNyF-SwpN6REmsCcp1_-5" value="&lt;font&gt;&lt;b&gt;Angle Embedding using PennyLane&lt;/b&gt;&lt;/font&gt;" style="text;html=1;align=center;verticalAlign=middle;whiteSpace=wrap;rounded=0;fontSize=16;" vertex="1" parent="1">
          <mxGeometry x="338.5" y="580" width="160" height="50" as="geometry" />
        </mxCell>
        <mxCell id="KbNyF-SwpN6REmsCcp1_-18" style="edgeStyle=orthogonalEdgeStyle;rounded=0;orthogonalLoop=1;jettySize=auto;html=1;exitX=0.5;exitY=1;exitDx=0;exitDy=0;entryX=0.5;entryY=0;entryDx=0;entryDy=0;" edge="1" parent="1" source="KbNyF-SwpN6REmsCcp1_-6" target="KbNyF-SwpN6REmsCcp1_-15">
          <mxGeometry relative="1" as="geometry" />
        </mxCell>
        <mxCell id="KbNyF-SwpN6REmsCcp1_-6" value="&lt;div&gt;&lt;b&gt;Quantum Device&lt;/b&gt;&lt;/div&gt;&lt;div&gt;&lt;br&gt;&lt;/div&gt;&lt;div&gt;Create quantum device and set number of qubits to Log&lt;span style=&quot;font-size: 13.3333px;&quot;&gt;&lt;sub&gt;2&lt;/sub&gt;&lt;/span&gt;N, where N is no of features&lt;/div&gt;" style="rounded=1;whiteSpace=wrap;html=1;fontSize=16;" vertex="1" parent="1">
          <mxGeometry x="97.5" y="630" width="165" height="150" as="geometry" />
        </mxCell>
        <mxCell id="KbNyF-SwpN6REmsCcp1_-10" value="" style="rounded=1;whiteSpace=wrap;html=1;fillColor=#fff2cc;fontSize=16;strokeColor=#d6b656;" vertex="1" parent="1">
          <mxGeometry x="68.5" y="500" width="460" height="50" as="geometry" />
        </mxCell>
        <mxCell id="KbNyF-SwpN6REmsCcp1_-11" value="&lt;b&gt;Quantum Feature Embedding&lt;/b&gt;" style="text;html=1;align=center;verticalAlign=middle;whiteSpace=wrap;rounded=0;fontSize=16;" vertex="1" parent="1">
          <mxGeometry x="118.5" y="500" width="380" height="50" as="geometry" />
        </mxCell>
        <mxCell id="KbNyF-SwpN6REmsCcp1_-12" value="" style="rounded=1;whiteSpace=wrap;html=1;fillColor=#fff2cc;fontSize=16;strokeColor=#d6b656;" vertex="1" parent="1">
          <mxGeometry x="68.5" y="1000" width="460" height="50" as="geometry" />
        </mxCell>
        <mxCell id="KbNyF-SwpN6REmsCcp1_-33" value="" style="edgeStyle=orthogonalEdgeStyle;rounded=0;orthogonalLoop=1;jettySize=auto;html=1;" edge="1" parent="1" source="KbNyF-SwpN6REmsCcp1_-13" target="tHObwuz-neF_lD4l34wk-2">
          <mxGeometry relative="1" as="geometry" />
        </mxCell>
        <mxCell id="KbNyF-SwpN6REmsCcp1_-13" value="&lt;b&gt;Quantum Encoded Data&lt;/b&gt;" style="text;html=1;align=center;verticalAlign=middle;whiteSpace=wrap;rounded=0;fontSize=16;" vertex="1" parent="1">
          <mxGeometry x="163.87" y="1000" width="262.25" height="50" as="geometry" />
        </mxCell>
        <mxCell id="KbNyF-SwpN6REmsCcp1_-19" style="edgeStyle=orthogonalEdgeStyle;rounded=0;orthogonalLoop=1;jettySize=auto;html=1;exitX=0.5;exitY=1;exitDx=0;exitDy=0;entryX=0.5;entryY=0;entryDx=0;entryDy=0;" edge="1" parent="1" source="KbNyF-SwpN6REmsCcp1_-14" target="KbNyF-SwpN6REmsCcp1_-16">
          <mxGeometry relative="1" as="geometry" />
        </mxCell>
        <mxCell id="KbNyF-SwpN6REmsCcp1_-14" value="&lt;div&gt;&lt;b&gt;Quantum Device&lt;/b&gt;&lt;/div&gt;&lt;div&gt;&lt;br&gt;&lt;/div&gt;&lt;div&gt;Create quantum device and set number of qubits to N, where N is no of features&lt;/div&gt;" style="rounded=1;whiteSpace=wrap;html=1;fontSize=16;" vertex="1" parent="1">
          <mxGeometry x="341" y="630" width="155" height="150" as="geometry" />
        </mxCell>
        <mxCell id="KbNyF-SwpN6REmsCcp1_-15" value="&lt;div&gt;&lt;b&gt;Quantum Encoding&lt;/b&gt;&lt;/div&gt;&lt;div&gt;&lt;br&gt;&lt;/div&gt;&lt;div&gt;Encode the features using the AmplitudeEmbedding Function available in PennyLane&lt;/div&gt;" style="rounded=1;whiteSpace=wrap;html=1;fontSize=16;" vertex="1" parent="1">
          <mxGeometry x="98.5" y="800" width="165" height="150" as="geometry" />
        </mxCell>
        <mxCell id="KbNyF-SwpN6REmsCcp1_-16" value="&lt;div&gt;&lt;b&gt;Quantum Encoding&lt;/b&gt;&lt;/div&gt;&lt;div&gt;&lt;br&gt;&lt;/div&gt;&lt;div&gt;Encode the features using the AngleEmbedding Function available in PennyLane&lt;/div&gt;" style="rounded=1;whiteSpace=wrap;html=1;fontSize=16;" vertex="1" parent="1">
          <mxGeometry x="339.75" y="800" width="157.5" height="150" as="geometry" />
        </mxCell>
        <mxCell id="KbNyF-SwpN6REmsCcp1_-20" style="edgeStyle=orthogonalEdgeStyle;rounded=0;orthogonalLoop=1;jettySize=auto;html=1;exitX=0.25;exitY=1;exitDx=0;exitDy=0;entryX=0.171;entryY=0.027;entryDx=0;entryDy=0;entryPerimeter=0;" edge="1" parent="1" source="hvczIfgNtDT0wLWKjFQM-11" target="KbNyF-SwpN6REmsCcp1_-11">
          <mxGeometry relative="1" as="geometry" />
        </mxCell>
        <mxCell id="KbNyF-SwpN6REmsCcp1_-21" style="edgeStyle=orthogonalEdgeStyle;rounded=0;orthogonalLoop=1;jettySize=auto;html=1;exitX=0.75;exitY=1;exitDx=0;exitDy=0;entryX=0.777;entryY=0;entryDx=0;entryDy=0;entryPerimeter=0;" edge="1" parent="1" source="hvczIfgNtDT0wLWKjFQM-11" target="KbNyF-SwpN6REmsCcp1_-11">
          <mxGeometry relative="1" as="geometry" />
        </mxCell>
        <mxCell id="KbNyF-SwpN6REmsCcp1_-25" style="edgeStyle=orthogonalEdgeStyle;rounded=0;orthogonalLoop=1;jettySize=auto;html=1;exitX=0.75;exitY=1;exitDx=0;exitDy=0;entryX=0.405;entryY=0.008;entryDx=0;entryDy=0;entryPerimeter=0;" edge="1" parent="1" source="KbNyF-SwpN6REmsCcp1_-11" target="KbNyF-SwpN6REmsCcp1_-5">
          <mxGeometry relative="1" as="geometry" />
        </mxCell>
        <mxCell id="KbNyF-SwpN6REmsCcp1_-27" style="edgeStyle=orthogonalEdgeStyle;rounded=0;orthogonalLoop=1;jettySize=auto;html=1;exitX=0.5;exitY=1;exitDx=0;exitDy=0;entryX=0.229;entryY=0.084;entryDx=0;entryDy=0;entryPerimeter=0;" edge="1" parent="1" source="KbNyF-SwpN6REmsCcp1_-1" target="KbNyF-SwpN6REmsCcp1_-12">
          <mxGeometry relative="1" as="geometry" />
        </mxCell>
        <mxCell id="KbNyF-SwpN6REmsCcp1_-28" style="edgeStyle=orthogonalEdgeStyle;rounded=0;orthogonalLoop=1;jettySize=auto;html=1;exitX=0.5;exitY=1;exitDx=0;exitDy=0;entryX=0.949;entryY=0.046;entryDx=0;entryDy=0;entryPerimeter=0;" edge="1" parent="1" source="KbNyF-SwpN6REmsCcp1_-2" target="KbNyF-SwpN6REmsCcp1_-13">
          <mxGeometry relative="1" as="geometry" />
        </mxCell>
        <mxCell id="KbNyF-SwpN6REmsCcp1_-35" style="edgeStyle=orthogonalEdgeStyle;rounded=0;orthogonalLoop=1;jettySize=auto;html=1;exitX=0.25;exitY=1;exitDx=0;exitDy=0;entryX=0.691;entryY=0.038;entryDx=0;entryDy=0;entryPerimeter=0;" edge="1" parent="1" source="KbNyF-SwpN6REmsCcp1_-11" target="KbNyF-SwpN6REmsCcp1_-4">
          <mxGeometry relative="1" as="geometry" />
        </mxCell>
      </root>
    </mxGraphModel>
  </diagram>
</mxfile>
